<?xml version="1.0" standalone="no"?>
<!DOCTYPE svg PUBLIC "-//W3C//DTD SVG 1.1//EN" "http://www.w3.org/Graphics/SVG/1.1/DTD/svg11.dtd">

<svg template="" viewBox="0 0 100 100" id="icodi" width="100%" height="100%" 
  xmlns="http://www.w3.org/2000/svg"
  xmlns:xlink="http://www.w3.org/1999/xlink">


<rect x="0" y="0" width="100" height="100" fill="#fff"/>
<defs>
<clipPath id="icodi-8080992">
<rect width="100" height="100"/>
</clipPath>
</defs>
<g clip-path="url(#icodi-8080992)">
<rect x="10" y="0" width="10" height="10" fill="#292d3e" style="stroke:#292d3e; stroke-width:0.1"/>
<rect x="80" y="0" width="10" height="10" fill="#292d3e" style="stroke:#292d3e; stroke-width:0.1"/>
<rect x="10" y="90" width="10" height="10" fill="#292d3e" style="stroke:#292d3e; stroke-width:0.1"/>
<rect x="80" y="90" width="10" height="10" fill="#292d3e" style="stroke:#292d3e; stroke-width:0.1"/>
<rect x="30" y="10" width="10" height="10" fill="#292d3e" style="stroke:#292d3e; stroke-width:0.1"/>
<rect x="60" y="10" width="10" height="10" fill="#292d3e" style="stroke:#292d3e; stroke-width:0.1"/>
<rect x="30" y="80" width="10" height="10" fill="#292d3e" style="stroke:#292d3e; stroke-width:0.1"/>
<rect x="60" y="80" width="10" height="10" fill="#292d3e" style="stroke:#292d3e; stroke-width:0.1"/>
<rect x="0" y="20" width="10" height="10" fill="#292d3e" style="stroke:#292d3e; stroke-width:0.1"/>
<rect x="90" y="20" width="10" height="10" fill="#292d3e" style="stroke:#292d3e; stroke-width:0.1"/>
<rect x="0" y="70" width="10" height="10" fill="#292d3e" style="stroke:#292d3e; stroke-width:0.1"/>
<rect x="90" y="70" width="10" height="10" fill="#292d3e" style="stroke:#292d3e; stroke-width:0.1"/>
<rect x="20" y="20" width="10" height="10" fill="#292d3e" style="stroke:#292d3e; stroke-width:0.1"/>
<rect x="70" y="20" width="10" height="10" fill="#292d3e" style="stroke:#292d3e; stroke-width:0.1"/>
<rect x="20" y="70" width="10" height="10" fill="#292d3e" style="stroke:#292d3e; stroke-width:0.1"/>
<rect x="70" y="70" width="10" height="10" fill="#292d3e" style="stroke:#292d3e; stroke-width:0.1"/>
<rect x="10" y="30" width="10" height="10" fill="#292d3e" style="stroke:#292d3e; stroke-width:0.1"/>
<rect x="80" y="30" width="10" height="10" fill="#292d3e" style="stroke:#292d3e; stroke-width:0.1"/>
<rect x="10" y="60" width="10" height="10" fill="#292d3e" style="stroke:#292d3e; stroke-width:0.1"/>
<rect x="80" y="60" width="10" height="10" fill="#292d3e" style="stroke:#292d3e; stroke-width:0.1"/>
<rect x="20" y="30" width="10" height="10" fill="#292d3e" style="stroke:#292d3e; stroke-width:0.1"/>
<rect x="70" y="30" width="10" height="10" fill="#292d3e" style="stroke:#292d3e; stroke-width:0.1"/>
<rect x="20" y="60" width="10" height="10" fill="#292d3e" style="stroke:#292d3e; stroke-width:0.1"/>
<rect x="70" y="60" width="10" height="10" fill="#292d3e" style="stroke:#292d3e; stroke-width:0.1"/>
<rect x="40" y="30" width="10" height="10" fill="#292d3e" style="stroke:#292d3e; stroke-width:0.1"/>
<rect x="50" y="30" width="10" height="10" fill="#292d3e" style="stroke:#292d3e; stroke-width:0.1"/>
<rect x="40" y="60" width="10" height="10" fill="#292d3e" style="stroke:#292d3e; stroke-width:0.1"/>
<rect x="50" y="60" width="10" height="10" fill="#292d3e" style="stroke:#292d3e; stroke-width:0.1"/>
</g>

</svg>